<svg xmlns="http://www.w3.org/2000/svg" width="330" height="120" viewBox="0 0 330 120" class="css-1j8o68f">
    <defs id="SvgjsDefs5723"></defs>
    <g id="SvgjsG5724" featurekey="symbolGroupContainer" transform="matrix(1,0,0,1,0,0)" fill="#390050">
        <rect xmlns="http://www.w3.org/2000/svg" width="110" height="120" rx="10" ry="10"></rect>
    </g>
    <g id="SvgjsG5725" featurekey="monogramFeature-0"
       transform="matrix(4.559825330874766,0,0,4.559825330874766,13.98103086764649,-6.446979091614693)" fill="#ffffff">
        <path d="M16.42 20.32 c0.4 0.5 0.32 1.22 -0.22 1.66 c-1.1 0.84 -2.24 1.26 -3.3 1.26 l-0.06 0 c-1.4 0 -2.58 -0.56 -3.66 -1.2 c-0.4 -0.22 -0.82 -0.3 -1.22 -0.3 c-0.66 0 -1.34 0.28 -1.42 0.34 l0 0 c-0.4 0.22 -0.86 0.18 -1.16 -0.06 c-0.02 -0.02 -0.06 -0.02 -0.12 -0.04 c-0.02 -0.02 -0.02 -0.02 -0.04 -0.02 c-0.1 -0.14 -0.22 -0.26 -0.28 -0.46 c-0.3 -0.6 -0.02 -1.26 0.54 -1.54 l0.06 -0.04 c-0.8 -0.38 -1.56 -0.9 -2.22 -1.52 c-1.22 -1.36 -2 -3.2 -2 -5.22 c0 -2 0.78 -3.82 2 -5.16 c1.28 -1.38 3.04 -2.22 5 -2.22 s3.74 0.84 4.96 2.22 c1.28 1.34 2.04 3.16 2.04 5.16 c0 2.02 -0.76 3.86 -2.04 5.22 c-0.62 0.64 -1.38 1.18 -2.22 1.58 l-0.46 0.18 c0.84 0.46 1.6 0.72 2.24 0.72 c0.58 0 1.14 -0.14 1.96 -0.76 c0.5 -0.4 1.22 -0.3 1.62 0.2 z M3.68 13.18 c0 1.42 0.52 2.68 1.38 3.6 c0.82 0.9 1.96 1.44 3.26 1.44 c1.28 0 2.42 -0.54 3.3 -1.44 c0.86 -0.92 1.38 -2.18 1.38 -3.6 s-0.52 -2.68 -1.38 -3.56 c-0.88 -0.92 -2.02 -1.46 -3.3 -1.46 c-1.3 0 -2.44 0.54 -3.26 1.46 c-0.86 0.88 -1.38 2.14 -1.38 3.56 z"></path>
    </g>
    <g id="SvgjsG5726" featurekey="vO5bA2-0"
       transform="matrix(4.541325972804085,0,0,4.541325972804085,122.4613974126236,-7.413259728040849)" fill="#390050">
        <path d="M10.04 15.84 c0 2.28 -1.92 4.16 -4.22 4.16 c-2.28 0 -4.16 -1.88 -4.16 -4.16 l0 -4.78 c0 -0.56 0.48 -1.06 1.06 -1.06 c0.6 0 1.06 0.5 1.06 1.06 l0 4.78 c0 1.14 0.9 2.04 2.04 2.04 c1.16 0 2.08 -0.9 2.1 -2.04 l0 -4.78 l0 0 c0 -0.56 0.44 -1.06 1.04 -1.06 c0.56 0 1.08 0.5 1.08 1.06 l0 4.78 z M22.58 11.08 l0 3.94 l0 0 l0 0 l0 3.92 c0 0.58 -0.48 1.06 -1.06 1.06 c-0.52 0 -0.92 -0.38 -1.04 -0.86 c-0.76 0.54 -1.66 0.86 -2.66 0.86 l0 0 c-1.36 0 -2.54 -0.56 -3.4 -1.46 c-0.86 -0.92 -1.36 -2.16 -1.36 -3.52 c0 -1.38 0.5 -2.62 1.36 -3.52 c0.86 -0.92 2.04 -1.5 3.4 -1.5 c1 0 1.9 0.34 2.66 0.88 c0.12 -0.5 0.52 -0.88 1.04 -0.88 c0.58 0 1.06 0.48 1.06 1.08 z M19.68 17.08 c0.48 -0.52 0.78 -1.24 0.78 -2.06 c0 -0.84 -0.3 -1.56 -0.78 -2.06 c-0.48 -0.54 -1.16 -0.82 -1.86 -0.82 c-0.72 0 -1.4 0.28 -1.86 0.82 c-0.48 0.5 -0.76 1.22 -0.76 2.06 c0 0.82 0.28 1.54 0.76 2.06 c0.46 0.5 1.14 0.78 1.86 0.78 c0.7 0 1.38 -0.28 1.86 -0.78 z M33.42 10.24 c0.56 0.24 0.82 0.82 0.58 1.36 l-3.28 7.76 c-0.02 0.06 -0.06 0.12 -0.08 0.14 c0 0.02 -0.02 0.02 -0.02 0.02 c-0.04 0.04 -0.08 0.1 -0.12 0.14 c0 0.02 -0.02 0.02 -0.02 0.02 c-0.04 0.06 -0.08 0.08 -0.12 0.12 c0 0 -0.02 0 -0.02 0.02 c-0.04 0.04 -0.08 0.08 -0.14 0.1 l-0.04 0 l0 0.02 c-0.06 0 -0.12 0.02 -0.16 0.04 l-0.04 0 c-0.08 0.02 -0.14 0.02 -0.2 0.02 l0 0 c-0.04 0 -0.1 0 -0.18 -0.02 l-0.04 0 c-0.06 -0.02 -0.1 -0.04 -0.16 -0.04 l0 -0.02 l-0.04 0 c-0.06 -0.02 -0.1 -0.06 -0.18 -0.1 c0 -0.02 -0.02 -0.02 -0.02 -0.02 c-0.04 -0.04 -0.08 -0.06 -0.12 -0.12 c-0.02 0 -0.02 0 -0.04 -0.02 c-0.02 -0.04 -0.06 -0.1 -0.1 -0.14 c-0.02 0 -0.02 0 -0.02 -0.02 c-0.04 -0.02 -0.06 -0.08 -0.08 -0.14 l-3.24 -7.76 c-0.24 -0.54 0.02 -1.12 0.58 -1.36 c0.48 -0.24 1.1 0.04 1.34 0.58 l2.3 5.44 l2.32 -5.44 c0.22 -0.54 0.82 -0.82 1.34 -0.58 z M45.7 11.08 l0 3.94 l0 0 l0 0 l0 3.92 c0 0.58 -0.48 1.06 -1.06 1.06 c-0.52 0 -0.92 -0.38 -1.04 -0.86 c-0.76 0.54 -1.66 0.86 -2.66 0.86 l0 0 c-1.36 0 -2.54 -0.56 -3.4 -1.46 c-0.86 -0.92 -1.36 -2.16 -1.36 -3.52 c0 -1.38 0.5 -2.62 1.36 -3.52 c0.86 -0.92 2.04 -1.5 3.4 -1.5 c1 0 1.9 0.34 2.66 0.88 c0.12 -0.5 0.52 -0.88 1.04 -0.88 c0.58 0 1.06 0.48 1.06 1.08 z M42.800000000000004 17.08 c0.48 -0.52 0.78 -1.24 0.78 -2.06 c0 -0.84 -0.3 -1.56 -0.78 -2.06 c-0.48 -0.54 -1.16 -0.82 -1.86 -0.82 c-0.72 0 -1.4 0.28 -1.86 0.82 c-0.48 0.5 -0.76 1.22 -0.76 2.06 c0 0.82 0.28 1.54 0.76 2.06 c0.46 0.5 1.14 0.78 1.86 0.78 c0.7 0 1.38 -0.28 1.86 -0.78 z"></path>
    </g>
</svg>
