<svg xmlns="http://www.w3.org/2000/svg" width="110" height="120" viewBox="0 0 110 120" class="css-1j8o68f">
    <defs id="SvgjsDefs5723"></defs>
    <g id="SvgjsG5724"
       transform="matrix(1,0,0,1,0,0)" fill="#390050">
        <rect xmlns="http://www.w3.org/2000/svg" width="110" height="120" rx="10" ry="10"></rect>
    </g>
    <g id="SvgjsG5725"
       transform="matrix(4.559825330874766,0,0,4.559825330874766,13.98103086764649,-6.446979091614693)" fill="#ffffff">
        <path d="M16.42 20.32 c0.4 0.5 0.32 1.22 -0.22 1.66 c-1.1 0.84 -2.24 1.26 -3.3 1.26 l-0.06 0 c-1.4 0 -2.58 -0.56 -3.66 -1.2 c-0.4 -0.22 -0.82 -0.3 -1.22 -0.3 c-0.66 0 -1.34 0.28 -1.42 0.34 l0 0 c-0.4 0.22 -0.86 0.18 -1.16 -0.06 c-0.02 -0.02 -0.06 -0.02 -0.12 -0.04 c-0.02 -0.02 -0.02 -0.02 -0.04 -0.02 c-0.1 -0.14 -0.22 -0.26 -0.28 -0.46 c-0.3 -0.6 -0.02 -1.26 0.54 -1.54 l0.06 -0.04 c-0.8 -0.38 -1.56 -0.9 -2.22 -1.52 c-1.22 -1.36 -2 -3.2 -2 -5.22 c0 -2 0.78 -3.82 2 -5.16 c1.28 -1.38 3.04 -2.22 5 -2.22 s3.74 0.84 4.96 2.22 c1.28 1.34 2.04 3.16 2.04 5.16 c0 2.02 -0.76 3.86 -2.04 5.22 c-0.62 0.64 -1.38 1.18 -2.22 1.58 l-0.46 0.18 c0.84 0.46 1.6 0.72 2.24 0.72 c0.58 0 1.14 -0.14 1.96 -0.76 c0.5 -0.4 1.22 -0.3 1.62 0.2 z M3.68 13.18 c0 1.42 0.52 2.68 1.38 3.6 c0.82 0.9 1.96 1.44 3.26 1.44 c1.28 0 2.42 -0.54 3.3 -1.44 c0.86 -0.92 1.38 -2.18 1.38 -3.6 s-0.52 -2.68 -1.38 -3.56 c-0.88 -0.92 -2.02 -1.46 -3.3 -1.46 c-1.3 0 -2.44 0.54 -3.26 1.46 c-0.86 0.88 -1.38 2.14 -1.38 3.56 z"></path>
    </g>
</svg>
