<svg xmlns="http://www.w3.org/2000/svg" width="413.9406926695877" height="159.78440118951067" viewBox="0 0 413.9406926695877 159.78440118951067" class="css-1j8o68f"><defs id="SvgjsDefs1134"></defs><g id="SvgjsG1135" featurekey="vO5bA2-0" transform="matrix(5.713352722738523,0,0,5.713352722738523,27.458374787392593,-3.137435984263476)" fill="#ffffff"><path d="M16.42 20.32 c0.4 0.5 0.32 1.22 -0.22 1.66 c-1.1 0.84 -2.24 1.26 -3.3 1.26 l-0.06 0 c-1.4 0 -2.58 -0.56 -3.66 -1.2 c-0.4 -0.22 -0.82 -0.3 -1.22 -0.3 c-0.66 0 -1.34 0.28 -1.42 0.34 l0 0 c-0.4 0.22 -0.86 0.18 -1.16 -0.06 c-0.02 -0.02 -0.06 -0.02 -0.12 -0.04 c-0.02 -0.02 -0.02 -0.02 -0.04 -0.02 c-0.1 -0.14 -0.22 -0.26 -0.28 -0.46 c-0.3 -0.6 -0.02 -1.26 0.54 -1.54 l0.06 -0.04 c-0.8 -0.38 -1.56 -0.9 -2.22 -1.52 c-1.22 -1.36 -2 -3.2 -2 -5.22 c0 -2 0.78 -3.82 2 -5.16 c1.28 -1.38 3.04 -2.22 5 -2.22 s3.74 0.84 4.96 2.22 c1.28 1.34 2.04 3.16 2.04 5.16 c0 2.02 -0.76 3.86 -2.04 5.22 c-0.62 0.64 -1.38 1.18 -2.22 1.58 l-0.46 0.18 c0.84 0.46 1.6 0.72 2.24 0.72 c0.58 0 1.14 -0.14 1.96 -0.76 c0.5 -0.4 1.22 -0.3 1.62 0.2 z M3.68 13.18 c0 1.42 0.52 2.68 1.38 3.6 c0.82 0.9 1.96 1.44 3.26 1.44 c1.28 0 2.42 -0.54 3.3 -1.44 c0.86 -0.92 1.38 -2.18 1.38 -3.6 s-0.52 -2.68 -1.38 -3.56 c-0.88 -0.92 -2.02 -1.46 -3.3 -1.46 c-1.3 0 -2.44 0.54 -3.26 1.46 c-0.86 0.88 -1.38 2.14 -1.38 3.56 z M26.919999999999998 15.84 c0 2.28 -1.92 4.16 -4.22 4.16 c-2.28 0 -4.16 -1.88 -4.16 -4.16 l0 -4.78 c0 -0.56 0.48 -1.06 1.06 -1.06 c0.6 0 1.06 0.5 1.06 1.06 l0 4.78 c0 1.14 0.9 2.04 2.04 2.04 c1.16 0 2.08 -0.9 2.1 -2.04 l0 -4.78 l0 0 c0 -0.56 0.44 -1.06 1.04 -1.06 c0.56 0 1.08 0.5 1.08 1.06 l0 4.78 z M39.46 11.08 l0 3.94 l0 0 l0 0 l0 3.92 c0 0.58 -0.48 1.06 -1.06 1.06 c-0.52 0 -0.92 -0.38 -1.04 -0.86 c-0.76 0.54 -1.66 0.86 -2.66 0.86 l0 0 c-1.36 0 -2.54 -0.56 -3.4 -1.46 c-0.86 -0.92 -1.36 -2.16 -1.36 -3.52 c0 -1.38 0.5 -2.62 1.36 -3.52 c0.86 -0.92 2.04 -1.5 3.4 -1.5 c1 0 1.9 0.34 2.66 0.88 c0.12 -0.5 0.52 -0.88 1.04 -0.88 c0.58 0 1.06 0.48 1.06 1.08 z M36.56 17.08 c0.48 -0.52 0.78 -1.24 0.78 -2.06 c0 -0.84 -0.3 -1.56 -0.78 -2.06 c-0.48 -0.54 -1.16 -0.82 -1.86 -0.82 c-0.72 0 -1.4 0.28 -1.86 0.82 c-0.48 0.5 -0.76 1.22 -0.76 2.06 c0 0.82 0.28 1.54 0.76 2.06 c0.46 0.5 1.14 0.78 1.86 0.78 c0.7 0 1.38 -0.28 1.86 -0.78 z M50.300000000000004 10.24 c0.56 0.24 0.82 0.82 0.58 1.36 l-3.28 7.76 c-0.02 0.06 -0.06 0.12 -0.08 0.14 c0 0.02 -0.02 0.02 -0.02 0.02 c-0.04 0.04 -0.08 0.1 -0.12 0.14 c0 0.02 -0.02 0.02 -0.02 0.02 c-0.04 0.06 -0.08 0.08 -0.12 0.12 c0 0 -0.02 0 -0.02 0.02 c-0.04 0.04 -0.08 0.08 -0.14 0.1 l-0.04 0 l0 0.02 c-0.06 0 -0.12 0.02 -0.16 0.04 l-0.04 0 c-0.08 0.02 -0.14 0.02 -0.2 0.02 l0 0 c-0.04 0 -0.1 0 -0.18 -0.02 l-0.04 0 c-0.06 -0.02 -0.1 -0.04 -0.16 -0.04 l0 -0.02 l-0.04 0 c-0.06 -0.02 -0.1 -0.06 -0.18 -0.1 c0 -0.02 -0.02 -0.02 -0.02 -0.02 c-0.04 -0.04 -0.08 -0.06 -0.12 -0.12 c-0.02 0 -0.02 0 -0.04 -0.02 c-0.02 -0.04 -0.06 -0.1 -0.1 -0.14 c-0.02 0 -0.02 0 -0.02 -0.02 c-0.04 -0.02 -0.06 -0.08 -0.08 -0.14 l-3.24 -7.76 c-0.24 -0.54 0.02 -1.12 0.58 -1.36 c0.48 -0.24 1.1 0.04 1.34 0.58 l2.3 5.44 l2.32 -5.44 c0.22 -0.54 0.82 -0.82 1.34 -0.58 z M62.580000000000005 11.08 l0 3.94 l0 0 l0 0 l0 3.92 c0 0.58 -0.48 1.06 -1.06 1.06 c-0.52 0 -0.92 -0.38 -1.04 -0.86 c-0.76 0.54 -1.66 0.86 -2.66 0.86 l0 0 c-1.36 0 -2.54 -0.56 -3.4 -1.46 c-0.86 -0.92 -1.36 -2.16 -1.36 -3.52 c0 -1.38 0.5 -2.62 1.36 -3.52 c0.86 -0.92 2.04 -1.5 3.4 -1.5 c1 0 1.9 0.34 2.66 0.88 c0.12 -0.5 0.52 -0.88 1.04 -0.88 c0.58 0 1.06 0.48 1.06 1.08 z M59.68000000000001 17.08 c0.48 -0.52 0.78 -1.24 0.78 -2.06 c0 -0.84 -0.3 -1.56 -0.78 -2.06 c-0.48 -0.54 -1.16 -0.82 -1.86 -0.82 c-0.72 0 -1.4 0.28 -1.86 0.82 c-0.48 0.5 -0.76 1.22 -0.76 2.06 c0 0.82 0.28 1.54 0.76 2.06 c0.46 0.5 1.14 0.78 1.86 0.78 c0.7 0 1.38 -0.28 1.86 -0.78 z"></path></g><g id="SvgjsG1136" featurekey="sZsxfm-0" transform="matrix(1.0560285125211528,0,0,1.0560285125211528,3.9439723686977084,138.6638294284267)" fill="#e7d3ff"><path d="M11.74 7.1 c0 0.6 -0.5 1.12 -1.1 1.12 l-3.18 0 l0 10.68 c0 0.62 -0.48 1.1 -1.1 1.1 c-0.6 0 -1.1 -0.48 -1.1 -1.1 l0 -10.68 l-3.16 0 c-0.62 0 -1.1 -0.52 -1.1 -1.12 c0 -0.62 0.48 -1.1 1.1 -1.1 l8.54 0 c0.6 0 1.1 0.48 1.1 1.1 z M31.356 20 c-0.62 0 -1.1 -0.48 -1.1 -1.1 l0 -11.8 c0 -0.62 0.48 -1.1 1.1 -1.1 s1.12 0.48 1.12 1.1 l0 4.8 l5.18 0 l0 -4.8 c0 -0.62 0.48 -1.1 1.1 -1.1 s1.12 0.48 1.12 1.1 l0 11.8 c0 0.62 -0.5 1.1 -1.12 1.1 s-1.1 -0.48 -1.1 -1.1 l0 -4.8 l-5.18 0 l0 4.8 c0 0.62 -0.5 1.1 -1.12 1.1 z M58.792 18.9 l0 -11.8 c0 -0.62 0.48 -1.1 1.1 -1.1 l0 0 c0.6 0 1.12 0.48 1.12 1.1 l0 0 l0 11.8 c0 0.62 -0.52 1.1 -1.12 1.1 l0 0 c-0.62 0 -1.1 -0.48 -1.1 -1.1 l0 0 z M82.168 10.6 l0 8.3 c0 0.6 -0.5 1.1 -1.08 1.1 c-0.62 0 -1.1 -0.5 -1.1 -1.1 l0 -11.62 l0 -0.02 c-0.02 -0.34 0.14 -0.7 0.44 -0.92 c0.5 -0.34 1.18 -0.24 1.52 0.24 l6.46 8.94 l0 -8.24 c0 -0.58 0.48 -1.08 1.08 -1.08 s1.1 0.5 1.1 1.08 l0 11.62 c0 0.6 -0.5 1.1 -1.1 1.1 c-0.32 0 -0.62 -0.16 -0.82 -0.4 c-0.04 -0.04 -0.08 -0.08 -0.1 -0.12 z M111.70400000000001 20 c-0.62 0 -1.1 -0.5 -1.1 -1.1 l0 -11.7 c0 -0.58 0.48 -1.1 1.1 -1.1 s1.1 0.52 1.1 1.1 l0 5.74 l6.48 -6.5 c0.44 -0.44 1.12 -0.44 1.56 0 c0.42 0.42 0.42 1.12 0 1.56 l-4.4 4.38 l4.44 5.82 c0.4 0.46 0.32 1.16 -0.16 1.54 c-0.2 0.18 -0.44 0.26 -0.7 0.26 c-0.3 0 -0.6 -0.14 -0.82 -0.4 l-4.32 -5.66 l-2.08 2.12 l0 2.84 c0 0.6 -0.48 1.1 -1.1 1.1 z M162.436 20 c-0.62 0 -1.1 -0.5 -1.1 -1.1 l0 -11.8 c0 -0.62 0.48 -1.1 1.1 -1.1 l0 0 l0 0 l2.36 0 c3.86 0 6.98 3.14 6.98 6.98 c0 3.88 -3.12 7.02 -6.98 7.02 l-2.36 0 l0 0 l0 0 z M163.556 8.22 l0 9.56 l1.24 0 c2.64 -0.02 4.76 -2.14 4.76 -4.8 c0 -2.62 -2.12 -4.76 -4.76 -4.76 l-1.24 0 z M190.072 18.9 l0 -11.8 c0 -0.62 0.48 -1.1 1.1 -1.1 l0 0 c0.6 0 1.12 0.48 1.12 1.1 l0 0 l0 11.8 c0 0.62 -0.52 1.1 -1.12 1.1 l0 0 c-0.62 0 -1.1 -0.48 -1.1 -1.1 l0 0 z M212.348 20 c-0.62 0 -1.1 -0.5 -1.1 -1.1 l0 -11.8 c0 -0.6 0.48 -1.1 1.1 -1.1 l0.02 0 l0.04 0 l6.48 0 c0.58 0 1.1 0.5 1.1 1.1 c0 0.62 -0.52 1.12 -1.1 1.12 l-5.42 0 l0 3.66 l4.66 0 c0.6 0 1.1 0.52 1.1 1.1 c0 0.62 -0.5 1.12 -1.1 1.12 l-4.66 0 l0 4.8 c0 0.6 -0.5 1.1 -1.12 1.1 z M239.66400000000002 20 c-0.62 0 -1.1 -0.5 -1.1 -1.1 l0 -11.8 c0 -0.6 0.48 -1.1 1.1 -1.1 l0.02 0 l0.04 0 l6.48 0 c0.58 0 1.1 0.5 1.1 1.1 c0 0.62 -0.52 1.12 -1.1 1.12 l-5.42 0 l0 3.66 l4.66 0 c0.6 0 1.1 0.52 1.1 1.1 c0 0.62 -0.5 1.12 -1.1 1.12 l-4.66 0 l0 4.8 c0 0.6 -0.5 1.1 -1.12 1.1 z M266.98 20 c-0.62 0 -1.1 -0.5 -1.1 -1.1 l0 -11.8 c0 -0.62 0.48 -1.1 1.1 -1.1 l0.02 0 l0.04 0 l6.48 0 c0.58 0 1.1 0.48 1.1 1.1 s-0.52 1.12 -1.1 1.12 l-5.42 0 l0 3.66 l4.66 0 c0.6 0 1.1 0.52 1.1 1.1 c0 0.62 -0.5 1.12 -1.1 1.12 l-4.66 0 l0 3.68 l5.42 0 c0.58 0 1.1 0.5 1.1 1.12 c0 0.6 -0.52 1.1 -1.1 1.1 l-6.48 0 c-0.04 0 -0.04 -0.02 -0.04 -0.02 z M301.916 17.66 c0.32 0.1 0.58 0.34 0.7 0.68 c0.2 0.58 -0.12 1.2 -0.7 1.4 c-0.08 0.02 -0.24 0.06 -0.44 0.06 l-0.02 0 c-0.2 0 -0.5 -0.04 -0.78 -0.22 c-0.26 -0.16 -0.48 -0.42 -0.64 -0.7 c-0.28 -0.58 -0.42 -1.3 -0.42 -2.4 c-0.02 -0.38 -0.1 -0.64 -0.24 -0.86 c-0.12 -0.22 -0.36 -0.42 -0.6 -0.58 c-0.42 -0.28 -0.94 -0.44 -1.12 -0.48 l-2.36 0 l0 4.34 c0 0.6 -0.5 1.1 -1.12 1.1 s-1.1 -0.5 -1.1 -1.1 l0 -11.8 c0 -0.62 0.48 -1.1 1.1 -1.1 l0.02 0 l0 0 l3.56 0 c2.38 0 4.28 1.92 4.28 4.3 c0 1.32 -0.6 2.48 -1.56 3.28 c0.26 0.2 0.5 0.44 0.7 0.74 c0.4 0.58 0.66 1.32 0.66 2.16 c-0.02 0.6 0.04 0.98 0.08 1.18 z M297.75600000000003 12.34 c1.14 0 2.06 -0.92 2.06 -2.04 c0 -1.16 -0.92 -2.08 -2.06 -2.08 l-2.46 0 l0 4.12 l2.46 0 z M322.172 20 c-0.62 0 -1.1 -0.5 -1.1 -1.1 l0 -11.8 c0 -0.62 0.48 -1.1 1.1 -1.1 l0.02 0 l0.04 0 l6.48 0 c0.58 0 1.1 0.48 1.1 1.1 s-0.52 1.12 -1.1 1.12 l-5.42 0 l0 3.66 l4.66 0 c0.6 0 1.1 0.52 1.1 1.1 c0 0.62 -0.5 1.12 -1.1 1.12 l-4.66 0 l0 3.68 l5.42 0 c0.58 0 1.1 0.5 1.1 1.12 c0 0.6 -0.52 1.1 -1.1 1.1 l-6.48 0 c-0.04 0 -0.04 -0.02 -0.04 -0.02 z M350.348 10.6 l0 8.3 c0 0.6 -0.5 1.1 -1.08 1.1 c-0.62 0 -1.1 -0.5 -1.1 -1.1 l0 -11.62 l0 -0.02 c-0.02 -0.34 0.14 -0.7 0.44 -0.92 c0.5 -0.34 1.18 -0.24 1.52 0.24 l6.46 8.94 l0 -8.24 c0 -0.58 0.48 -1.08 1.08 -1.08 s1.1 0.5 1.1 1.08 l0 11.62 c0 0.6 -0.5 1.1 -1.1 1.1 c-0.32 0 -0.62 -0.16 -0.82 -0.4 c-0.04 -0.04 -0.08 -0.08 -0.1 -0.12 z M388.2440000000001 7.1 c0 0.6 -0.5 1.12 -1.1 1.12 l-3.18 0 l0 10.68 c0 0.62 -0.48 1.1 -1.1 1.1 c-0.6 0 -1.1 -0.48 -1.1 -1.1 l0 -10.68 l-3.16 0 c-0.62 0 -1.1 -0.52 -1.1 -1.12 c0 -0.62 0.48 -1.1 1.1 -1.1 l8.54 0 c0.6 0 1.1 0.48 1.1 1.1 z"></path></g></svg>