<svg xmlns="http://www.w3.org/2000/svg" width="299.855" height="60" class="css-1j8o68f">
    <path d="M3.685 12.588c0 .019.003.037.003.057H1.053c0-.02-.003-.037-.003-.057 0-.161.012-.32.02-.478h2.634c-.012.158-.02.317-.02.478zm.137-1.296a6.474 6.474 0 00-.088.533H1.083c.015-.18.043-.357.068-.533h2.67zm.063-.285H1.19c.031-.168.077-.327.12-.488H1.3c.021-.093.05-.183.076-.274l.008-.033c.867-3.104 3.37-5.36 6.33-5.36s5.462 2.256 6.328 5.36c.004.01.006.021.009.032.025.092.054.182.076.275h-.01c.043.161.09.321.119.488h-2.694a5.548 5.548 0 00-.285-.795h.006c-.677-1.615-2.007-2.725-3.55-2.725s-2.873 1.11-3.55 2.725h.007a5.486 5.486 0 00-.285.795zm8.254-2.303l-.02.48-.406.258.452.166.119.467.298-.379.48.032-.268-.4.178-.448-.462.131zM10.85 7.47l-.407.256.452.167.118.467.298-.378.48.03-.267-.4.178-.447-.463.131-.37-.307zM9.204 6.266l-.407.257.452.167.118.466.298-.377.48.03-.268-.4.179-.448-.463.131-.37-.307zm-2.075-.801l.178.448-.268.4.48-.03.298.377.119-.466.451-.167-.406-.257-.019-.481-.37.307zm-1.757.497l.178.448-.268.4.48-.03.298.377.119-.466.45-.167-.406-.257-.018-.482-.37.308zM3.726 7.166l.178.448-.268.4.48-.03.298.377.119-.466.451-.167-.406-.257-.019-.481-.37.307zM2.455 8.881l.178.447-.268.4.48-.031.299.378.118-.466.452-.166-.407-.257-.019-.481-.37.307zm1.252 4.048c.01.179.015.36.04.533H1.096c-.018-.175-.022-.354-.03-.533h2.641zm8.036-.34a6.1 6.1 0 00-.02-.479h2.633c.01.159.022.317.022.479 0 .019-.003.037-.003.056h-2.636c0-.02.004-.037.004-.056zm2.618.34c-.007.179-.011.358-.03.534H11.68c.025-.174.03-.355.04-.534h2.641zm-2.842 1.323c.045-.163.071-.336.104-.505h2.668c-.022.17-.04.34-.072.505h-2.7zm-7.713-.505c.031.17.058.341.103.505h-2.7c-.03-.166-.05-.337-.072-.505h2.669zm7.887-1.922c-.022-.18-.05-.359-.087-.533h2.67c.026.176.053.353.068.533h-2.65zm-3.98 5.865c.182 0 .358-.018.531-.047l2.063 2.07a5.835 5.835 0 01-2.594.611c-2.96 0-5.472-2.253-6.339-5.36h2.777c.676 1.62 2.019 2.726 3.563 2.726zm4.684.39l2.974 2.913h-3.788l-1.275-1.28-2.063-2.07c.89-.15 1.684-.672 2.292-1.435.292-.365.545-.78.738-1.243h2.777a8.03 8.03 0 01-1.655 3.115zm-1.385.47l.451-.166-.406-.258-.019-.481-.37.307-.463-.13.178.447-.268.4.48-.03.298.377zm1.449 1.848l.119-.465.45-.167-.406-.257-.018-.482-.37.308-.464-.131.179.447-.268.4.48-.03zm7.604-12.81H17.47v-.526h2.595v.526zm0-1.612H17.47v-.675h2.595v.675zm0 .806H17.47v-.527h2.595v.527zm0 5.818H17.47V8.675h2.595V12.6zm0-4.206H17.47v-.526h2.595v.526zM30.6 7.588h-2.595v-.526H30.6v.526zm0-1.612h-2.595v-.622H30.6v.622zm0 6.624h-2.595V8.675H30.6V12.6zm0-4.206h-2.595v-.526H30.6v.526zm0-1.612h-2.595v-.527H30.6v.527zm-6.565 10.97c2.783 0 3.698-1.967 3.913-3.963h2.607c-.403 4.81-3.556 6.558-6.52 6.558-2.963 0-6.116-1.749-6.52-6.558h2.608c.215 1.996 1.13 3.962 3.913 3.962zm-4.548-1.342l.02-.473.4-.254-.445-.164-.117-.46-.293.373-.474-.03.264.394-.176.44.457-.129zm1.271 1.216l.4-.254-.444-.164-.117-.46-.293.373-.473-.03.263.393-.176.441.457-.129.365.303zm1.621 1.186l.402-.254-.446-.164-.117-.46-.293.373-.473-.03.263.394-.175.44.456-.128.365.303zm2.233.887l-.175-.44.263-.395-.473.03-.294-.371-.116.459-.445.164.4.254.018.473.365-.303zm1.919-.587l-.175-.44.264-.394-.473.03-.294-.372-.117.46-.445.164.4.252.019.474.364-.303zm1.621-1.187l-.175-.44.264-.394-.474.03-.293-.371-.117.459-.445.164.4.253.019.473.364-.303zm.456-2.406l-.444.164.4.254.019.474.364-.303.457.128-.176-.44.263-.394-.473.03-.293-.372zm7.22.594h.61L34.846 20h-.61zm.878 0h.61L35.724 20h-.61zm-2.462 0h.438L33.09 20h-.4zm.706 0h.61L33.968 20h-.61zM35.992 20l1.592-3.887h.441L36.452 20h-.46zm10.321-3.887l1.6 3.887H44.14l-1.625-3.887h3.798zm-1.355-3.293l1.083 2.634H34.506l1.048-2.634h9.404zm-8.121 1.972l-.08-.474.343-.336-.476-.07-.214-.43-.212.43-.476.07.345.336-.082.474.426-.224zm1.932 0l-.083-.474.345-.336-.476-.07-.212-.43-.214.43-.476.07.346.336-.082.474.426-.224zm1.931 0l-.082-.474.345-.336-.477-.07-.213-.43-.212.43-.476.07.345.336-.082.474.426-.224zm1.932 0l-.084-.474.346-.336-.476-.07-.213-.43-.212.43-.476.07.345.336-.082.474.426-.224zm1.931 0l-.083-.474.346-.336-.477-.07-.212-.43-.213.43-.476.07.345.336-.082.474.426-.224zm-4.33-4.227l-.701 1.76h-3.78L38.546 5.3h3.318l-.352 1.136.078-.253 2.434 6.142h-.61l-2.092-5.278-.117.38 1.94 4.898h-.61l-1.598-4.034.174-.56-.292.939 1.448 3.655h-.61l-1.106-2.792-.117.38.955 2.412h-.434zm4.06 1.76l-2.584-6.521.157-.504 2.89 7.025h-.463zM60.698 5.3h3.708l-4.998 13.762-1.84-5.056zm-1.126 8.998l.474-.052-.33-.345.098-.467-.43.207-.415-.237.064.474-.353.32.47.085.195.436zm.667-1.833l.476-.052-.33-.345.096-.467-.43.207-.414-.237.064.473-.353.321.47.086.195.434zm.668-1.833l.476-.052-.33-.345.097-.467-.43.207-.415-.237.064.473-.353.32.47.086.195.435zm.627-1.722l.475-.052-.33-.345.097-.467-.43.207-.415-.237.065.473-.353.321.47.085.195.436zm.441-1.413l.226-.42.474-.053-.33-.345.097-.467-.43.207-.415-.237.064.474-.353.321.47.085zM51.589 5.3h.564l5.35 14.7h-.564zm1.728 0h.4L59.069 20h-.4zm-.864 0h.564l5.35 14.7h-.564zm-1.728 0h.564l5.35 14.7h-.563zm-.715 0h.415l5.35 14.7h-.415zm19.618 10.813h.61L68.646 20h-.61zm.878 0h.61L69.524 20h-.61zm-2.462 0h.438L66.89 20h-.4zm.706 0h.61L67.768 20h-.61zM69.792 20l1.592-3.887h.441L70.252 20h-.46zm10.321-3.887l1.6 3.887H77.94l-1.625-3.887h3.798zm-1.355-3.293l1.083 2.634H68.306l1.048-2.634h9.404zm-8.121 1.972l-.08-.474.343-.336-.476-.07-.214-.43-.212.43-.476.07.345.336-.082.474.426-.224zm1.932 0l-.083-.474.345-.336-.476-.07-.212-.43-.214.43-.476.07.346.336-.082.474.426-.224zm1.931 0l-.082-.474.344-.336-.476-.07-.213-.43-.212.43-.476.07.345.336-.082.474.426-.224zm1.932 0l-.084-.474.346-.336-.476-.07-.213-.43-.212.43-.476.07.345.336-.082.474.426-.224zm1.931 0l-.083-.474.346-.336-.477-.07-.212-.43-.213.43-.476.07.345.336-.082.474.426-.224zm-4.33-4.227l-.701 1.76h-3.78L72.346 5.3h3.318l-.352 1.136.078-.253 2.434 6.142h-.61l-2.092-5.278-.117.38 1.94 4.898h-.61l-1.598-4.034.174-.56-.292.939 1.448 3.655h-.61l-1.106-2.792-.117.38.955 2.412h-.434zm4.06 1.76l-2.584-6.521.157-.504 2.89 7.025h-.463z"
          transform="matrix(3.71742 0 0 3.71742 -3.903 -18.039)" id="SvgjsG4887" fill="#243665"/>
</svg>
